<svg width="298" height="245" viewBox="0 0 298 245" fill="none" xmlns="http://www.w3.org/2000/svg">
<g opacity="0.6">
<path d="M128.021 237.177H127.859C127.795 237.155 127.737 237.121 127.687 237.077C127.636 237.032 127.595 236.978 127.566 236.918C127.537 236.858 127.52 236.792 127.516 236.725C127.512 236.658 127.522 236.591 127.544 236.527C129.144 231.65 131.108 226.9 133.421 222.317C129.183 225.557 125.601 229.573 122.865 234.152C122.806 234.252 122.714 234.328 122.604 234.367C122.495 234.406 122.375 234.405 122.266 234.366C122.158 234.329 122.064 234.258 122.002 234.162C121.939 234.066 121.911 233.952 121.921 233.838C122.469 228.935 123.078 223.475 121.586 218.501L120.571 229.575C120.563 229.677 120.523 229.775 120.458 229.855C120.393 229.935 120.305 229.993 120.206 230.021C120.107 230.046 120.002 230.042 119.905 230.01C119.808 229.977 119.722 229.918 119.658 229.839C114.583 223.221 108.224 217.698 100.961 213.599C104.768 218.047 108.14 222.849 111.03 227.941C111.079 228.033 111.099 228.138 111.086 228.241C111.073 228.345 111.029 228.442 110.959 228.519C110.892 228.597 110.802 228.652 110.702 228.676C110.601 228.7 110.496 228.691 110.401 228.651C104.686 226.398 98.8705 224.175 93.1459 222.043C92.7704 222.764 93.5418 223.972 94.1102 224.632L101.418 233.076C101.487 233.165 101.524 233.274 101.524 233.386C101.524 233.498 101.487 233.607 101.418 233.696C101.357 233.788 101.267 233.858 101.163 233.894C101.059 233.931 100.945 233.933 100.84 233.899C98.2817 233.076 95.8156 231.991 93.4809 230.661L97.6729 235.817C97.759 235.922 97.7999 236.057 97.7866 236.192C97.7733 236.327 97.7068 236.451 97.6018 236.538C97.4968 236.624 97.3619 236.665 97.2268 236.651C97.0916 236.638 96.9673 236.572 96.8812 236.467L90.7912 228.956C90.7105 228.865 90.666 228.747 90.666 228.626C90.666 228.504 90.7105 228.387 90.7912 228.296C90.873 228.205 90.9847 228.147 91.1059 228.132C91.2271 228.117 91.3496 228.147 91.4509 228.215C93.9136 229.875 96.5643 231.238 99.3476 232.275L93.2576 225.271C92.1208 223.952 91.3393 222.145 92.5471 221.039C92.6168 220.974 92.7032 220.93 92.7965 220.912C92.8898 220.894 92.9862 220.903 93.0749 220.937C98.495 222.967 103.986 224.997 109.396 227.159C106.351 221.79 102.352 216.938 98.495 212.228C98.4234 212.137 98.3845 212.025 98.3845 211.909C98.3845 211.793 98.4234 211.68 98.495 211.589C98.5673 211.496 98.6702 211.432 98.7855 211.408C98.9007 211.383 99.0208 211.401 99.1243 211.457C107.07 215.526 114.056 221.242 119.617 228.225L120.713 216.197C120.723 216.084 120.771 215.978 120.848 215.895C120.925 215.812 121.028 215.758 121.14 215.74C121.249 215.722 121.362 215.741 121.459 215.795C121.557 215.848 121.634 215.932 121.678 216.035C123.9 221.028 123.616 226.794 123.109 231.787C126.144 227.257 130.012 223.344 134.507 220.257C134.601 220.194 134.713 220.164 134.826 220.172C134.939 220.18 135.046 220.226 135.13 220.302C135.214 220.378 135.27 220.479 135.29 220.591C135.309 220.702 135.291 220.817 135.238 220.917C132.543 226.023 130.291 231.351 128.509 236.842C128.473 236.942 128.406 237.028 128.319 237.088C128.231 237.148 128.127 237.179 128.021 237.177Z" fill="#E6E7E8"/>
<path d="M41.3594 0.499512L8.9707 12.7607L16.8369 73.1431L55.5186 28.4932L41.3594 0.499512Z" fill="#D1D5DC"/>
<path d="M55.5187 28.9905C55.437 28.9927 55.3561 28.9743 55.2834 28.9371C55.2107 28.8998 55.1485 28.8449 55.1026 28.7773C45.6428 15.1459 33.6658 11.6441 25.292 11.1062C19.8245 10.7433 14.3393 11.4678 9.15351 13.2377C9.02814 13.2849 8.88935 13.2816 8.76632 13.2286C8.64328 13.1756 8.54558 13.077 8.49376 12.9535C8.46931 12.8909 8.45754 12.824 8.45913 12.7568C8.46072 12.6896 8.47564 12.6234 8.50302 12.5621C8.53041 12.5007 8.56971 12.4454 8.61865 12.3993C8.66759 12.3532 8.72519 12.3173 8.78811 12.2937C9.06216 12.1821 37.3604 1.44337 55.9349 28.1988C55.9733 28.2539 56.0004 28.3162 56.0146 28.3819C56.0288 28.4476 56.0298 28.5155 56.0175 28.5816C56.0052 28.6477 55.9799 28.7107 55.9431 28.767C55.9062 28.8232 55.8586 28.8716 55.8029 28.9093C55.7195 28.9664 55.6197 28.9949 55.5187 28.9905Z" fill="#231F20"/>
<path d="M14.1075 146.193C13.9819 146.191 13.8612 146.144 13.7678 146.06C13.6744 145.976 13.6148 145.861 13.6 145.736C12.7677 137.342 14.7876 130.511 20.8167 121.508C23.9429 116.818 20.9791 113.093 17.2439 108.384C14.412 104.811 11.1539 100.781 10.4637 95.6557C8.81937 84.3791 15.7112 73.8941 16.3811 72.9197L40.8832 0.347211C40.9272 0.220977 41.0184 0.116667 41.1376 0.0561243C41.2568 -0.00441858 41.3948 -0.0164989 41.5227 0.0224115C41.5871 0.043039 41.6468 0.0763482 41.6982 0.120379C41.7496 0.164409 41.7916 0.218272 41.8219 0.278798C41.8522 0.339325 41.87 0.405294 41.8744 0.472822C41.8788 0.54035 41.8696 0.608074 41.8475 0.672011L17.3149 73.3054C17.3008 73.352 17.2803 73.3964 17.254 73.4374C17.1728 73.5389 9.83437 84.308 11.4685 95.5035C12.1689 100.365 15.2849 104.283 18.0356 107.744C21.72 112.383 25.1406 116.768 21.6591 122.066C15.7721 130.896 13.803 137.504 14.615 145.634C14.622 145.701 14.6157 145.768 14.5965 145.833C14.5773 145.897 14.5455 145.957 14.5031 146.009C14.4606 146.061 14.4083 146.104 14.3491 146.135C14.2899 146.167 14.225 146.186 14.1583 146.193H14.1075Z" fill="#231F20"/>
<path d="M11.3973 86.0639L3.10476 80.4814L1.31836 87.4037L11.3973 86.0639Z" fill="#D1D5DC"/>
<path d="M11.3965 86.0641L19.4556 83.3135L17.9838 90.1241L11.3965 86.0641Z" fill="#D1D5DC"/>
<path d="M13.5395 102.405H3.41992L6.98257 108.79L13.5395 102.405Z" fill="#D1D5DC"/>
<path d="M13.5391 102.405L20.2888 94.7422L23.3338 101.867L13.5391 102.405Z" fill="#D1D5DC"/>
<path d="M20.2875 123.244L12.5329 117.803L9.49805 124.096L20.2875 123.244Z" fill="#D1D5DC"/>
<path d="M20.2891 123.244H28.6831L24.481 129.76L20.2891 123.244Z" fill="#D1D5DC"/>
<path d="M211.129 143.29C209.423 143.306 207.72 143.129 206.054 142.762C199.771 141.31 199.832 130.064 199.903 117.042C199.984 102.324 200.076 85.6478 190.768 80.9382C188.799 79.9232 184.293 79.3243 178.06 78.4616C166.063 76.8072 145.976 74.0362 121.423 65.2666C91.8565 54.7512 63.1015 38.1458 35.9604 15.9478C35.8589 15.8593 35.7951 15.7355 35.7818 15.6015C35.7686 15.4676 35.8071 15.3336 35.8894 15.2271C35.9746 15.1241 36.097 15.0588 36.23 15.0455C36.3631 15.0322 36.496 15.0719 36.5999 15.1561C99.5299 66.6064 152.655 73.9347 178.192 77.4568C184.759 78.3601 189.094 78.959 191.215 80.0349C201.131 85.0286 201.04 102.04 200.959 117.052C200.888 129.11 200.827 140.509 206.318 141.777C218.823 144.66 238.341 134.033 238.534 133.921C238.593 133.889 238.657 133.869 238.724 133.862C238.79 133.854 238.857 133.86 238.921 133.879C238.986 133.898 239.045 133.929 239.097 133.972C239.149 134.014 239.192 134.065 239.224 134.124C239.258 134.182 239.28 134.246 239.289 134.312C239.298 134.378 239.293 134.446 239.275 134.51C239.257 134.575 239.226 134.635 239.184 134.687C239.142 134.739 239.09 134.783 239.031 134.814C238.341 135.21 223.451 143.29 211.129 143.29Z" fill="#231F20"/>
<path d="M271.674 236.233C271.674 236.233 270.811 239.928 272.293 241.907C273.775 243.886 283.894 242.77 284.016 242.404C284.138 242.039 280.068 232.254 280.068 232.254L271.674 236.233Z" fill="#231F20"/>
<path d="M277.641 243.551C275.165 243.551 272.678 243.257 271.886 242.212C270.283 240.07 271.145 236.274 271.186 236.122C271.2 236.046 271.233 235.976 271.281 235.916C271.328 235.856 271.39 235.808 271.46 235.777L279.844 231.828C279.974 231.777 280.119 231.777 280.25 231.828C280.377 231.884 280.478 231.986 280.534 232.112C284.675 242.029 284.594 242.364 284.493 242.577C284.391 242.79 284.117 243.014 283.122 243.176C281.306 243.426 279.475 243.552 277.641 243.551ZM272.12 236.578C271.967 237.39 271.572 240.111 272.698 241.603C273.825 243.095 281.549 242.526 283.427 242.09C282.99 240.75 281.123 236.142 279.803 232.955L272.12 236.578Z" fill="#231F20"/>
<path d="M269.328 230.854L271.46 237.664L280.067 232.285L275.286 226.053L269.328 230.854Z" fill="white"/>
<path d="M271.461 238.172H271.289C271.216 238.146 271.15 238.103 271.097 238.046C271.044 237.99 271.005 237.921 270.984 237.847L268.842 231.036C268.812 230.938 268.813 230.833 268.844 230.735C268.875 230.638 268.934 230.551 269.015 230.488L274.973 225.687C275.024 225.643 275.084 225.61 275.149 225.591C275.214 225.572 275.282 225.567 275.349 225.576C275.417 225.581 275.483 225.6 275.543 225.634C275.602 225.667 275.654 225.713 275.694 225.768L280.464 232.001C280.507 232.058 280.539 232.124 280.556 232.193C280.574 232.263 280.577 232.336 280.566 232.407C280.553 232.476 280.525 232.541 280.485 232.599C280.445 232.657 280.393 232.705 280.332 232.741L271.735 238.121C271.652 238.167 271.556 238.185 271.461 238.172ZM269.918 231.067L271.756 236.923L279.327 232.193L275.207 226.814L269.918 231.067Z" fill="#231F20"/>
<path d="M215.777 153.612L176.791 228.377L189.793 231.422L230.576 173.09C230.576 173.09 240.157 196.78 244.502 201.723C248.846 206.666 267.025 233.635 267.025 233.635L277.723 226.895C277.723 226.895 260.366 205.154 258.641 197.379C256.915 189.604 252.551 158.048 252.551 158.048L215.777 153.612Z" fill="#231F20"/>
<path d="M267.024 234.153C266.942 234.153 266.861 234.133 266.788 234.094C266.716 234.055 266.654 233.998 266.608 233.929C266.426 233.655 248.399 206.92 244.126 202.068C240.198 197.602 232.251 178.52 230.454 174.156L190.209 231.767C190.151 231.85 190.07 231.913 189.976 231.949C189.882 231.985 189.78 231.993 189.681 231.97L176.669 228.925C176.595 228.907 176.527 228.872 176.469 228.822C176.411 228.773 176.365 228.711 176.334 228.641C176.297 228.573 176.277 228.496 176.277 228.418C176.277 228.34 176.297 228.263 176.334 228.195L215.32 153.43C215.366 153.337 215.439 153.261 215.53 153.212C215.621 153.162 215.725 153.143 215.828 153.156L252.601 157.601C252.71 157.615 252.812 157.665 252.891 157.742C252.969 157.818 253.021 157.919 253.038 158.028C253.038 158.352 257.412 189.655 259.128 197.318C260.843 204.982 277.946 226.418 278.118 226.631C278.203 226.749 278.239 226.894 278.22 227.037C278.191 227.179 278.107 227.303 277.986 227.383L267.299 234.122C267.211 234.155 267.117 234.165 267.024 234.153ZM230.576 172.603C230.668 172.612 230.755 172.646 230.828 172.701C230.902 172.757 230.959 172.832 230.992 172.918C231.083 173.151 240.594 196.577 244.837 201.399C248.897 206.027 264.741 229.443 267.116 232.955L276.921 226.774C274.383 223.556 259.666 204.768 258.092 197.491C256.519 190.213 252.551 162.138 252.053 158.505L216.011 154.15L177.441 228.042L189.621 230.864L230.221 172.816C230.26 172.757 230.313 172.707 230.374 172.67C230.436 172.633 230.505 172.61 230.576 172.603Z" fill="#231F20"/>
<path d="M183.714 235.371C183.714 235.371 183.369 241.785 181.684 242.039C179.999 242.293 158.979 243.521 159.963 242.039C160.948 240.557 174.031 233.645 174.031 233.645L183.714 235.371Z" fill="#231F20"/>
<path d="M166.002 243.267C162.582 243.267 159.912 243.064 159.486 242.475C159.414 242.369 159.375 242.244 159.375 242.115C159.375 241.986 159.414 241.861 159.486 241.755C160.501 240.242 171.534 234.365 173.696 233.198C173.796 233.146 173.91 233.129 174.021 233.147L183.735 234.873C183.856 234.895 183.966 234.961 184.043 235.058C184.119 235.155 184.158 235.277 184.151 235.401C184.069 237.004 183.633 242.252 181.654 242.506C181.583 242.556 172.519 243.267 166.002 243.267ZM160.653 242.008C163.556 242.678 179.614 241.816 181.573 241.531C182.303 241.43 182.983 238.486 183.176 235.786L174.041 234.173C169.464 236.619 162.308 240.598 160.653 242.008Z" fill="#231F20"/>
<path d="M176.792 228.377L173.99 233.645L183.714 235.37L186.505 230.113L176.792 228.377Z" fill="white"/>
<path d="M183.714 235.878H183.623L173.899 234.153C173.821 234.137 173.748 234.105 173.685 234.057C173.622 234.01 173.57 233.949 173.533 233.878C173.496 233.808 173.477 233.73 173.477 233.65C173.477 233.571 173.496 233.492 173.533 233.422L176.335 228.154C176.386 228.06 176.465 227.984 176.562 227.936C176.658 227.889 176.767 227.873 176.873 227.89L186.586 229.616C186.666 229.63 186.74 229.663 186.804 229.713C186.868 229.762 186.918 229.826 186.952 229.9C186.989 229.97 187.009 230.048 187.009 230.128C187.009 230.208 186.989 230.286 186.952 230.356L184.16 235.624C184.115 235.702 184.049 235.766 183.971 235.81C183.893 235.855 183.804 235.878 183.714 235.878ZM174.772 233.27L183.44 234.812L185.734 230.488L177.066 228.946L174.772 233.27Z" fill="#231F20"/>
<path d="M205.962 106.983C205.586 107.105 196.492 110.444 196.492 110.444C196.492 110.444 197.822 86.0031 198.065 84.5212C198.309 83.0393 197.202 77.1625 195.721 77.5685C194.239 77.9745 194.36 81.6285 194.36 81.6285C194.36 81.6285 190.169 79.903 190.047 78.1775C189.925 76.452 188.93 74.6047 188.189 75.9546C187.448 77.3046 190.29 82.2679 190.412 83.1814C190.534 84.0949 180.82 120.736 186.129 123.964C191.437 127.192 208.794 118.889 208.794 118.889L205.962 106.983Z" fill="white"/>
<path d="M189.509 125.253C188.245 125.319 186.986 125.042 185.865 124.451C181.805 121.995 185.216 104.151 189.093 87.0386C189.53 85.1405 189.895 83.4962 189.905 83.2526C189.709 82.6876 189.478 82.1351 189.215 81.5982C188.027 78.949 187.185 76.8277 187.753 75.7619C188.159 75.0108 188.687 74.9905 188.951 75.0514C189.966 75.2747 190.473 77.0814 190.555 78.1979C190.605 79.0302 192.341 80.2279 193.864 80.8978C193.864 79.6392 194.199 77.4671 195.589 77.0814C195.782 77.0303 195.986 77.0316 196.178 77.0851C196.371 77.1386 196.546 77.2425 196.685 77.3859C198.035 78.6039 198.776 83.3338 198.563 84.6026C198.38 85.7191 197.548 101.076 197.041 109.704L205.8 106.496C205.864 106.468 205.933 106.454 206.003 106.454C206.073 106.454 206.142 106.468 206.206 106.496C206.267 106.53 206.32 106.577 206.362 106.633C206.404 106.688 206.434 106.753 206.45 106.821L209.292 118.747C209.319 118.86 209.307 118.98 209.257 119.085C209.207 119.19 209.123 119.275 209.018 119.326C208.419 119.651 196.635 125.253 189.509 125.253ZM188.758 76.0563L188.636 76.2491C188.251 76.9596 189.53 79.8118 190.149 81.182C190.472 81.8314 190.731 82.5115 190.92 83.212C190.758 84.5865 190.48 85.9447 190.088 87.272C188.18 95.6661 182.404 121.183 186.383 123.599C190.981 126.37 205.668 119.803 208.206 118.636L205.597 107.663L196.665 110.932C196.586 110.96 196.501 110.969 196.417 110.956C196.334 110.944 196.255 110.911 196.188 110.861C196.121 110.81 196.068 110.743 196.033 110.667C195.997 110.591 195.981 110.508 195.985 110.424C195.985 109.409 197.315 85.9424 197.568 84.4503C197.751 83.3135 196.99 79.0404 196.005 78.1573C196.005 78.1573 195.904 78.0558 195.853 78.066C195.112 78.2791 194.838 80.3396 194.838 81.6692C194.843 81.7541 194.826 81.8388 194.788 81.9152C194.751 81.9916 194.695 82.0572 194.625 82.1057C194.55 82.1456 194.466 82.1666 194.381 82.1666C194.296 82.1666 194.213 82.1456 194.138 82.1057C193.387 81.8012 189.641 80.167 189.509 78.2284C189.505 77.4414 189.241 76.6778 188.758 76.0563Z" fill="#231F20"/>
<path d="M248.206 104.232C248.206 104.232 269.47 126.065 263.715 134.023C257.96 141.98 240.756 126.471 240.756 126.471L248.206 104.232Z" fill="white"/>
<path d="M259.007 136.804C251.547 136.804 240.879 127.273 240.412 126.847C240.341 126.78 240.29 126.693 240.267 126.597C240.243 126.502 240.248 126.402 240.28 126.309L247.731 104.07C247.758 103.988 247.806 103.914 247.87 103.855C247.934 103.796 248.011 103.755 248.096 103.735C248.181 103.717 248.269 103.72 248.353 103.745C248.436 103.77 248.512 103.815 248.573 103.877C249.456 104.781 270.071 126.116 264.123 134.327C263.633 135.022 262.997 135.601 262.258 136.022C261.519 136.443 260.697 136.696 259.85 136.763C259.57 136.792 259.289 136.806 259.007 136.804ZM241.387 126.319C243.112 127.811 253.364 136.418 259.789 135.748C260.494 135.695 261.179 135.485 261.794 135.134C262.408 134.782 262.937 134.299 263.341 133.718C265.564 130.673 263.625 124.685 257.759 116.463C254.902 112.521 251.797 108.764 248.461 105.217L241.387 126.319Z" fill="#231F20"/>
<path d="M257.535 129.161C257.397 129.161 257.266 129.106 257.169 129.009L247.821 119.254C247.728 119.156 247.678 119.025 247.682 118.89C247.686 118.755 247.743 118.627 247.841 118.534C247.939 118.441 248.071 118.391 248.206 118.395C248.341 118.399 248.469 118.456 248.562 118.554L257.9 128.308C257.947 128.355 257.985 128.41 258.01 128.471C258.036 128.532 258.049 128.597 258.049 128.664C258.049 128.73 258.036 128.795 258.01 128.856C257.985 128.917 257.947 128.972 257.9 129.019C257.853 129.067 257.795 129.105 257.732 129.129C257.669 129.154 257.602 129.164 257.535 129.161Z" fill="#231F20"/>
<path d="M234.281 95.6456C235.85 96.2393 237.545 96.421 239.204 96.1734C240.219 96.0414 241.437 95.402 241.234 94.4276L240.036 93.7171C243.055 91.3265 245.327 88.1213 246.583 84.4806C247.185 82.6625 247.395 80.7373 247.199 78.832C247.003 76.9268 246.406 75.0847 245.446 73.4272C245.008 72.6257 244.409 71.924 243.685 71.3666C242.962 70.8092 242.13 70.4083 241.244 70.1894H244.289C243.062 68.6035 241.497 67.3107 239.708 66.4048C237.919 65.4989 235.951 65.0027 233.946 64.952L236.098 63.937C233.954 62.9794 231.572 62.6842 229.259 63.0893C226.946 63.4944 224.807 64.5813 223.116 66.2106C222.378 66.8768 221.852 67.745 221.604 68.7075C221.279 70.3619 222.71 71.5292 223.786 72.5645C222.395 73.955 221.756 74.2595 221.756 76.2185C221.849 78.0531 222.265 79.857 222.984 81.5472C223.78 83.3075 224.71 85.0041 225.765 86.6222C228.069 90.4285 230.525 94.1941 234.281 95.6456Z" fill="white"/>
<path d="M237.722 96.772C236.479 96.7793 235.247 96.552 234.088 96.1021C230.191 94.5999 227.653 90.7125 225.39 86.8758L224.74 85.7897C223.906 84.5 223.183 83.1418 222.578 81.7297C221.837 79.9772 221.407 78.1085 221.309 76.2081C221.261 75.5297 221.387 74.8502 221.675 74.2339C221.963 73.6176 222.403 73.0849 222.954 72.6861L223.086 72.5643C222.071 71.5493 220.802 70.3313 221.137 68.6058C221.401 67.5385 221.977 66.5739 222.791 65.8348C224.555 64.1421 226.781 63.0117 229.189 62.587C231.596 62.1623 234.075 62.4625 236.311 63.4496C236.397 63.4911 236.469 63.556 236.52 63.6368C236.571 63.7176 236.597 63.811 236.597 63.9063C236.597 64.0017 236.571 64.0951 236.52 64.1759C236.469 64.2566 236.397 64.3215 236.311 64.3631L235.773 64.627C239.304 65.1968 242.488 67.0826 244.685 69.905C244.745 69.9781 244.781 70.0672 244.79 70.1612C244.799 70.2551 244.78 70.3497 244.736 70.4328C244.694 70.5182 244.629 70.5901 244.548 70.6404C244.467 70.6906 244.374 70.7172 244.279 70.717H243.639C244.514 71.3873 245.257 72.2131 245.832 73.153C246.826 74.868 247.445 76.7739 247.65 78.7454C247.855 80.7169 247.64 82.7095 247.019 84.592C245.83 88.1015 243.703 91.2185 240.868 93.6052L241.447 93.9503C241.506 93.9838 241.557 94.029 241.597 94.0832C241.637 94.1373 241.665 94.1992 241.68 94.265C241.735 94.4703 241.744 94.6852 241.705 94.8941C241.666 95.103 241.582 95.3007 241.457 95.4728C240.904 96.135 240.113 96.5541 239.255 96.6401C238.747 96.7138 238.235 96.7579 237.722 96.772ZM231.398 63.3887C228.455 63.3634 225.621 64.5015 223.512 66.5555C222.827 67.1485 222.335 67.9334 222.101 68.8088C221.857 70.0471 222.873 71.0012 223.857 71.9248L224.131 72.1989C224.229 72.2922 224.287 72.4193 224.293 72.5541C224.293 72.6913 224.238 72.8227 224.141 72.9195L223.634 73.4169C222.619 74.4319 222.294 74.7262 222.294 76.2183C222.395 77.9886 222.796 79.7288 223.481 81.3643C224.072 82.7212 224.771 84.0281 225.572 85.2721C225.796 85.6375 226.019 86.0029 226.232 86.3683C228.414 90.0527 230.83 93.7778 234.433 95.1683C235.918 95.7318 237.522 95.9031 239.092 95.6657C239.665 95.6184 240.199 95.3618 240.594 94.945C240.635 94.8797 240.662 94.8074 240.676 94.7319L239.711 94.1533C239.638 94.1157 239.576 94.0592 239.531 93.9897C239.486 93.9201 239.461 93.84 239.458 93.7575C239.451 93.6769 239.464 93.596 239.496 93.5217C239.528 93.4475 239.577 93.3821 239.64 93.3312C242.59 91.0065 244.806 87.8806 246.025 84.3281C246.609 82.5787 246.816 80.7255 246.632 78.8903C246.448 77.0552 245.878 75.2797 244.959 73.6808C244.555 72.9373 244.004 72.2838 243.339 71.7603C242.674 71.2368 241.909 70.8542 241.092 70.6358C240.967 70.6113 240.856 70.5419 240.779 70.4409C240.703 70.3399 240.666 70.2142 240.676 70.0877C240.688 69.9621 240.747 69.8457 240.841 69.7612C240.935 69.6767 241.057 69.6303 241.183 69.6309H243.213C242.03 68.3495 240.602 67.3176 239.014 66.596C237.426 65.8744 235.71 65.4775 233.966 65.4288C233.832 65.4585 233.691 65.4334 233.575 65.3591C233.459 65.2849 233.377 65.1676 233.347 65.033C233.318 64.8984 233.343 64.7575 233.417 64.6414C233.491 64.5253 233.609 64.4435 233.743 64.4138L234.87 63.8556C233.745 63.5155 232.573 63.3613 231.398 63.3988V63.3887Z" fill="#231F20"/>
<path d="M221.391 82.0444C221.391 82.0444 217.676 86.3886 218.204 87.4442C218.731 88.4998 220.964 88.1243 220.964 88.1243" fill="white"/>
<path d="M220.071 88.703C219.626 88.7621 219.174 88.6988 218.762 88.52C218.351 88.3411 217.996 88.0535 217.736 87.688C217.147 86.5106 219.533 83.4453 220.994 81.73C221.091 81.6363 221.22 81.584 221.355 81.584C221.489 81.584 221.618 81.6363 221.715 81.73C221.766 81.7728 221.807 81.8254 221.837 81.8845C221.867 81.9437 221.885 82.0083 221.89 82.0745C221.895 82.1407 221.886 82.2072 221.865 82.2701C221.844 82.3329 221.81 82.3909 221.766 82.4405C219.979 84.5314 218.528 86.805 218.65 87.3023C218.771 87.7997 220.284 87.7895 220.862 87.6982C220.928 87.685 220.995 87.6852 221.061 87.6986C221.126 87.712 221.188 87.7385 221.243 87.7763C221.298 87.8142 221.344 87.8628 221.38 87.9191C221.416 87.9754 221.44 88.0384 221.451 88.1042C221.463 88.1702 221.461 88.2379 221.446 88.3033C221.432 88.3687 221.404 88.4305 221.366 88.4853C221.327 88.54 221.278 88.5865 221.221 88.6222C221.164 88.6578 221.101 88.6818 221.035 88.6929C220.714 88.7243 220.392 88.7277 220.071 88.703Z" fill="#231F20"/>
<path d="M223.654 71.7526C221.462 73.133 220.792 80.7557 220.538 82.9887C220.172 86.1352 219.878 89.2884 219.655 92.4485C219.523 94.4785 224.669 95.1382 225.653 94.651L225.887 102.832C225.887 102.832 226.262 103.4 230.657 101.989C235.052 100.579 235.215 99.6042 235.215 99.6042L235.996 90.4692C235.996 90.4692 232.596 90.0734 231.084 85.7698C229.571 81.4662 230.424 75.2341 230.424 75.2341C230.424 75.2341 225.796 70.3824 223.654 71.7526Z" fill="white"/>
<path d="M226.424 103.461C225.694 103.461 225.541 103.228 225.46 103.106C225.406 103.028 225.378 102.936 225.379 102.842L225.166 95.2702C223.429 95.3908 221.695 95.0065 220.172 94.1638C219.857 93.996 219.595 93.7437 219.416 93.4353C219.237 93.1269 219.147 92.7746 219.157 92.418C219.38 89.2614 219.675 86.0743 220.04 82.9379L220.111 82.3289C220.629 77.5787 221.431 72.5545 223.39 71.3263C225.805 69.8038 230.292 74.3713 230.799 74.889C230.853 74.9448 230.893 75.0125 230.916 75.0865C230.938 75.1605 230.944 75.2388 230.931 75.3153C230.931 75.3762 230.119 81.4662 231.57 85.6074C232.951 89.5354 235.945 89.9617 236.067 89.9719C236.198 89.9872 236.318 90.053 236.401 90.1553C236.485 90.2577 236.525 90.3885 236.513 90.52L235.732 99.655C235.671 100.081 235.062 101.127 230.829 102.487C229.414 103.015 227.931 103.343 226.424 103.461ZM226.424 102.446C227.835 102.337 229.223 102.026 230.545 101.523C233.925 100.437 234.605 99.6448 234.758 99.4926L235.498 90.9057C234.34 90.5536 233.287 89.9168 232.438 89.0533C231.589 88.1898 230.969 87.1272 230.637 85.9626C229.256 82.0346 229.784 76.6652 229.926 75.4371C228.211 73.7014 225.217 71.3771 223.968 72.1992C222.151 73.3462 221.39 80.2076 221.146 82.4609L221.075 83.0699C220.72 86.1961 220.426 89.3629 220.202 92.5094C220.202 92.7936 220.375 93.0778 220.781 93.3417C222.209 94.1316 223.854 94.4379 225.47 94.2146C225.547 94.177 225.632 94.1593 225.717 94.1633C225.802 94.1673 225.885 94.1927 225.958 94.2372C226.031 94.2817 226.092 94.3439 226.134 94.4181C226.176 94.4922 226.2 94.5758 226.201 94.6612L226.424 102.446Z" fill="#231F20"/>
<path d="M220.07 90.1136C220.07 90.1136 221.258 90.6211 224.567 88.2866L220.07 90.1136Z" fill="white"/>
<path d="M220.375 90.6822C220.188 90.6892 220.001 90.6582 219.827 90.5909C219.765 90.5664 219.708 90.5297 219.661 90.483C219.613 90.4363 219.575 90.3806 219.55 90.319C219.524 90.2575 219.511 90.1914 219.512 90.1248C219.512 90.0582 219.526 89.9923 219.552 89.9311C219.602 89.8107 219.696 89.7141 219.815 89.6612C219.934 89.6083 220.069 89.6032 220.192 89.6469C220.263 89.6469 221.39 89.8804 224.252 87.8808C224.306 87.8421 224.367 87.8146 224.431 87.7997C224.496 87.7849 224.562 87.7831 224.628 87.7945C224.693 87.8058 224.755 87.8301 224.811 87.8658C224.867 87.9016 224.915 87.9481 224.952 88.0026C224.991 88.0572 225.019 88.1189 225.034 88.1842C225.049 88.2495 225.051 88.3172 225.039 88.3832C225.028 88.4493 225.004 88.5125 224.968 88.5691C224.932 88.6257 224.885 88.6747 224.83 88.7131C222.455 90.3676 221.085 90.6822 220.375 90.6822Z" fill="#231F20"/>
<path d="M225.654 94.6506C227.248 94.349 228.721 93.5949 229.897 92.4785C229.897 92.4785 230.77 98.5685 225.837 99.5023L225.654 94.6506Z" fill="#231F20"/>
<path d="M225.794 100.01C225.662 100.007 225.536 99.9545 225.442 99.862C225.348 99.7696 225.292 99.6445 225.287 99.5125L225.145 94.671C225.14 94.5491 225.18 94.4297 225.256 94.3346C225.333 94.2396 225.441 94.1752 225.561 94.1533C227.044 93.8584 228.415 93.1553 229.52 92.1233C229.583 92.0489 229.667 91.9948 229.76 91.9677C229.854 91.9407 229.954 91.9418 230.047 91.9711C230.14 91.9993 230.223 92.0534 230.286 92.1272C230.349 92.2009 230.389 92.2912 230.403 92.3872C230.727 94.671 230.2 99.2182 225.876 99.9794L225.794 100.01ZM226.17 95.0567L226.282 98.8629C229.063 98.0306 229.459 95.1379 229.459 93.5646C228.465 94.2699 227.345 94.7766 226.16 95.0567H226.17Z" fill="#231F20"/>
<path d="M223.902 78.864C223.952 78.2439 223.794 77.7249 223.548 77.7049C223.302 77.6849 223.062 78.1714 223.011 78.7916C222.961 79.4118 223.119 79.9308 223.365 79.9508C223.611 79.9708 223.851 79.4842 223.902 78.864Z" fill="#231F20"/>
<path d="M227.176 84.8052C227.365 84.0361 227.761 83.3338 228.323 82.7752C228.698 82.2836 229.142 81.8494 229.642 81.4862C229.895 81.3111 230.183 81.1932 230.487 81.1406C230.79 81.088 231.101 81.102 231.398 81.1817C231.652 81.2802 231.882 81.4316 232.073 81.6259C232.263 81.8201 232.411 82.0528 232.505 82.3083C232.694 82.8239 232.763 83.3758 232.708 83.9222C232.611 85.1093 232.205 86.2505 231.53 87.2319C230.855 88.2132 229.935 89.0004 228.861 89.5148L229.054 89.3423" fill="white"/>
<path d="M228.85 90.002C228.764 90 228.68 89.9779 228.604 89.9373C228.528 89.8968 228.463 89.839 228.414 89.7685C228.35 89.6643 228.326 89.5409 228.344 89.4201C228.363 89.2994 228.423 89.1891 228.515 89.1088L228.718 88.9362C228.811 88.8548 228.93 88.8113 229.053 88.8145C229.937 88.3033 230.684 87.5859 231.23 86.7233C231.776 85.8607 232.106 84.8787 232.19 83.8612C232.238 83.3948 232.183 82.9233 232.027 82.4808C231.96 82.2934 231.854 82.1223 231.715 81.9788C231.577 81.8354 231.41 81.7228 231.225 81.6485C231.001 81.5894 230.767 81.5805 230.538 81.6226C230.31 81.6647 230.094 81.7568 229.906 81.8921C229.448 82.2269 229.041 82.627 228.698 83.0797C228.206 83.578 227.856 84.198 227.683 84.8762C227.661 85.0084 227.588 85.1266 227.48 85.2061C227.372 85.2857 227.237 85.3202 227.105 85.3025C226.973 85.2824 226.855 85.2117 226.775 85.1054C226.696 84.9991 226.661 84.8658 226.678 84.7341C226.869 83.8618 227.306 83.0623 227.937 82.4301C228.339 81.8951 228.822 81.426 229.368 81.0395C229.683 80.8187 230.044 80.672 230.423 80.6104C230.803 80.5489 231.192 80.5742 231.56 80.6843C231.884 80.807 232.179 80.9972 232.424 81.2421C232.669 81.4871 232.859 81.7813 232.981 82.1053C233.198 82.6884 233.278 83.3135 233.215 83.9323C233.108 85.2106 232.669 86.4388 231.941 87.4947C231.213 88.5507 230.221 89.3976 229.063 89.9512C228.997 89.9848 228.924 90.0022 228.85 90.002Z" fill="#231F20"/>
<path d="M215.421 99.817C219.055 95.9397 239.304 90.682 248.206 104.202C257.108 117.722 257.341 157.114 253.981 161.752C253.981 161.752 223.968 160.169 212.955 149.308C218.03 131.647 216.193 120.787 216.193 120.787L206.104 122.614L203.982 106.821C203.982 106.821 212.407 103.055 215.421 99.817Z" fill="#D1D5DC"/>
<path d="M246.086 101.573L259.575 113.591L246.999 120.259L246.086 101.573Z" fill="#D1D5DC"/>
<path d="M252.632 115.743C252.515 115.743 252.401 115.702 252.311 115.628C252.22 115.554 252.158 115.451 252.134 115.337C251.12 110.407 248.914 105.8 245.71 101.918C245.617 101.823 245.564 101.696 245.564 101.563C245.564 101.43 245.617 101.303 245.71 101.208C245.757 101.16 245.813 101.122 245.875 101.097C245.937 101.071 246.003 101.058 246.07 101.058C246.137 101.058 246.203 101.071 246.265 101.097C246.327 101.122 246.383 101.16 246.43 101.208C249.78 105.209 252.072 109.987 253.099 115.103C253.112 115.168 253.112 115.236 253.1 115.301C253.087 115.367 253.062 115.429 253.025 115.485C252.988 115.54 252.941 115.588 252.886 115.625C252.83 115.663 252.768 115.689 252.703 115.702L252.632 115.743Z" fill="#231F20"/>
<path d="M169.321 244.302C164.652 244.302 159.952 244.109 155.314 243.927C150.878 243.744 146.28 243.551 141.946 243.551C132.654 243.404 123.374 242.78 114.145 241.684C109.558 241.217 104.807 240.73 100.067 240.374C92.9271 239.837 85.747 240.474 78.8133 242.262L78.1535 242.435C76.3117 243.029 74.3842 243.314 72.4492 243.277C71.1852 243.147 69.9393 242.879 68.7343 242.475C67.7826 242.168 66.8088 241.934 65.8213 241.775C61.9643 241.237 57.7013 241.907 53.6413 242.567C50.626 243.133 47.5724 243.472 44.5063 243.582C39.4313 243.582 34.3563 243.582 29.2813 243.582H1.31805C1.18345 243.582 1.05436 243.528 0.95919 243.433C0.864015 243.338 0.810547 243.209 0.810547 243.074C0.810547 242.94 0.864015 242.81 0.95919 242.715C1.05436 242.62 1.18345 242.567 1.31805 242.567H29.3016C34.3766 242.567 39.4516 242.567 44.4657 242.567C47.4711 242.454 50.4637 242.115 53.418 241.552C57.6099 240.892 61.944 240.202 65.9431 240.76C66.9755 240.924 67.9936 241.168 68.9881 241.491C70.1238 241.873 71.2981 242.128 72.4898 242.252C74.3154 242.277 76.1327 242.003 77.8693 241.44L78.5291 241.278C85.5678 239.456 92.8579 238.805 100.108 239.349C104.868 239.715 109.619 240.192 114.217 240.669C123.412 241.759 132.657 242.383 141.916 242.536C146.27 242.536 150.878 242.729 155.324 242.912C165.21 243.308 175.431 243.734 184.759 242.252C196.543 240.395 208.906 240.527 220.863 240.658L225.572 240.709C237.864 240.811 250.308 241.298 262.559 242.151C271.125 242.749 279.255 242.678 287.873 242.597C290.786 242.597 293.719 242.536 296.683 242.536C296.818 242.536 296.947 242.59 297.042 242.685C297.137 242.78 297.191 242.909 297.191 243.044C297.191 243.178 297.137 243.307 297.042 243.403C296.947 243.498 296.818 243.551 296.683 243.551C293.719 243.551 290.786 243.551 287.883 243.612C279.245 243.693 271.095 243.764 262.508 243.166C250.277 242.313 237.854 241.826 225.582 241.724L220.873 241.673C208.957 241.552 196.645 241.41 184.942 243.257C179.769 244.007 174.547 244.357 169.321 244.302Z" fill="#231F20"/>
<path d="M14.706 241.105C14.5785 241.106 14.4553 241.059 14.3609 240.973L9.13367 236.193C9.05414 236.122 8.99939 236.028 8.97747 235.923C8.95554 235.819 8.9676 235.711 9.01187 235.614C9.05458 235.519 9.12487 235.44 9.21358 235.385C9.3023 235.331 9.40532 235.305 9.50922 235.31C13.8999 235.633 18.1888 236.79 22.146 238.72C21.706 236.031 21.4079 233.321 21.2528 230.6C21.247 230.495 21.2742 230.39 21.3306 230.301C21.387 230.212 21.4698 230.143 21.5674 230.103C21.6635 230.064 21.769 230.055 21.8703 230.076C21.9717 230.098 22.0641 230.15 22.1358 230.225L27.0383 235.553C30.0833 231.879 33.5343 227.829 38.3048 225.911C38.392 225.876 38.4869 225.865 38.5797 225.88C38.6725 225.894 38.7598 225.933 38.8326 225.992C38.9023 226.052 38.9542 226.13 38.9828 226.218C39.0114 226.306 39.0156 226.399 38.995 226.489L37.371 233.878C41.5459 231.57 46.3669 230.706 51.0836 231.422C51.1796 231.437 51.2691 231.479 51.3413 231.544C51.4134 231.609 51.465 231.694 51.4896 231.788C51.5151 231.882 51.5134 231.982 51.4847 232.075C51.4559 232.168 51.4013 232.252 51.3272 232.315L45.3387 237.39C45.1544 237.522 45.0046 237.696 44.9023 237.898C44.9833 237.849 45.0764 237.823 45.1712 237.823C45.2661 237.823 45.3592 237.849 45.4402 237.898C45.4974 237.931 45.5474 237.976 45.5872 238.029C45.6269 238.082 45.6557 238.142 45.6718 238.207C45.6879 238.271 45.6909 238.338 45.6808 238.403C45.6706 238.469 45.6475 238.532 45.6128 238.588C45.5199 238.746 45.3754 238.868 45.2036 238.933C45.0318 238.997 44.8431 239.001 44.6688 238.943C44.4398 238.892 44.2358 238.762 44.0915 238.577C43.9471 238.392 43.8714 238.163 43.8771 237.928C43.9067 237.659 43.9947 237.4 44.1349 237.169C44.2752 236.937 44.4643 236.739 44.6891 236.589L49.7641 232.265C45.2426 231.829 40.7039 232.9 36.8533 235.31C36.7694 235.366 36.6704 235.397 36.5691 235.397C36.4678 235.397 36.3688 235.366 36.2849 235.31C36.2015 235.253 36.1374 235.172 36.1011 235.077C36.0648 234.983 36.0582 234.88 36.0819 234.782L37.8074 227.23C33.5343 229.26 30.337 233.168 27.4849 236.629C27.4376 236.683 27.38 236.727 27.3155 236.758C27.251 236.79 27.1809 236.808 27.1093 236.812C27.0373 236.813 26.9657 236.799 26.8993 236.771C26.8329 236.743 26.7731 236.702 26.7236 236.649L22.3997 231.95C22.5867 234.485 22.9018 237.009 23.3437 239.512C23.3609 239.604 23.3519 239.7 23.3179 239.788C23.2838 239.876 23.226 239.952 23.1508 240.009C23.0706 240.061 22.9772 240.088 22.8818 240.088C22.7865 240.088 22.6931 240.061 22.6129 240.009C18.9813 238.135 15.0404 236.935 10.981 236.467L15.1019 240.222C15.1494 240.269 15.1872 240.326 15.213 240.387C15.2387 240.449 15.252 240.516 15.252 240.583C15.252 240.65 15.2387 240.716 15.213 240.778C15.1872 240.84 15.1494 240.896 15.1019 240.943C15.0521 240.998 14.9908 241.041 14.9223 241.069C14.8538 241.097 14.7799 241.109 14.706 241.105Z" fill="#E6E7E8"/>
<path d="M254.327 240.902C254.223 240.903 254.121 240.872 254.035 240.813C253.949 240.754 253.883 240.67 253.846 240.573C253.81 240.475 253.804 240.369 253.83 240.268C253.856 240.167 253.913 240.077 253.992 240.009L257.483 236.964C255.133 236.782 252.78 237.267 250.693 238.365C250.625 238.397 250.55 238.414 250.475 238.414C250.399 238.414 250.325 238.397 250.257 238.365C250.187 238.335 250.124 238.291 250.073 238.235C250.023 238.179 249.985 238.112 249.962 238.04C249.556 236.592 249.497 235.069 249.79 233.594C248.573 234.729 247.493 236.003 246.572 237.39C246.361 237.807 245.998 238.127 245.557 238.283C245.185 238.346 244.802 238.293 244.461 238.131L239.213 236.101L241.68 238.882C241.762 238.984 241.802 239.114 241.79 239.244C241.779 239.374 241.718 239.495 241.62 239.581C241.522 239.668 241.394 239.713 241.263 239.708C241.133 239.702 241.009 239.646 240.919 239.552L237.062 235.218C236.993 235.128 236.955 235.017 236.955 234.903C236.955 234.79 236.993 234.679 237.062 234.589C237.127 234.496 237.221 234.427 237.33 234.394C237.438 234.361 237.555 234.365 237.661 234.406L244.857 237.177C245.008 237.252 245.175 237.29 245.344 237.289C245.486 237.289 245.649 237.004 245.77 236.822C247.061 234.867 248.654 233.13 250.49 231.676C250.579 231.607 250.688 231.57 250.8 231.57C250.912 231.57 251.021 231.607 251.109 231.676C251.199 231.741 251.265 231.834 251.294 231.941C251.324 232.048 251.316 232.162 251.272 232.264C250.653 233.814 250.501 235.511 250.835 237.146C253.32 235.999 256.092 235.624 258.793 236.071C258.889 236.085 258.978 236.128 259.05 236.193C259.123 236.258 259.174 236.342 259.199 236.436C259.222 236.528 259.221 236.625 259.194 236.716C259.167 236.807 259.116 236.889 259.047 236.954L255.596 239.887C255.677 239.93 255.745 239.995 255.793 240.073C255.841 240.152 255.868 240.242 255.87 240.334C255.867 240.468 255.813 240.597 255.719 240.693C255.624 240.79 255.497 240.846 255.362 240.851L254.327 240.902Z" fill="#E6E7E8"/>
</g>
</svg>
